<svg width="120" height="120" viewBox="0 0 120 120" fill="none" xmlns="http://www.w3.org/2000/svg">
<path fill-rule="evenodd" clip-rule="evenodd" d="M91.4062 0C108.75 0 120 11.25 120 28.5938V91.4062C120 108.75 108.75 120 91.4062 120H28.5938C11.25 120 0 108.75 0 91.4062V28.5938C0 11.25 11.25 0 28.5938 0H91.4062Z" fill="url(#paint0_linear_118_58)"/>
<path fill-rule="evenodd" clip-rule="evenodd" d="M59.6679 15C84.6887 15 105 35.1155 105 59.9995C105 84.8367 84.6887 105 59.6679 105C45.4924 105 32.8394 98.5306 24.5146 88.4256C37.2628 81.3903 51.7235 75.9123 71.1314 77.4706C75.7927 77.8014 82.072 80.6341 85.9725 77.6599C83.1189 76.7622 80.3596 75.8655 77.5061 74.9688C80.8354 75.5347 84.1176 76.1016 87.4469 76.6686C90.8726 76.1963 92.4896 67.0358 90.3969 66.2327C78.2187 69.7269 60.6184 54.9948 45.4452 54.2396C39.0706 52.1611 43.8272 31.6681 28.7954 33.8401C31.2696 40.6403 27.1785 47.0618 36.3113 54.3332C29.5091 52.1611 22.8022 49.9423 16 47.7702C21.3749 28.8354 38.8798 15 59.6679 15ZM39.737 37.0046C40.9736 34.1709 42.4952 31.5744 42.8285 28.1738C55.8146 32.4711 47.2519 45.5981 47.7276 52.3973C46.9197 52.3026 46.2532 52.1611 45.4452 52.1611C44.3983 51.5006 43.7318 48.9977 43.1617 46.1641C42.3527 43.0006 41.5437 39.5064 39.737 37.0046ZM53.2933 62.8331C52.0567 62.8331 50.9155 63.8713 50.9155 65.1935C50.9155 66.4688 52.0567 67.4602 53.2933 67.4602C54.6724 67.4602 55.7193 66.4688 55.7193 65.1935C55.7193 63.8713 54.6724 62.8331 53.2933 62.8331Z" fill="white"/>
<defs>
<linearGradient id="paint0_linear_118_58" x1="0" y1="0" x2="0" y2="120" gradientUnits="userSpaceOnUse">
<stop stop-color="#19D6FD"/>
<stop offset="1" stop-color="#1D64F0"/>
</linearGradient>
</defs>
</svg>
